<?xml version="1.0" encoding="UTF-8"?>
<svg id="Capa_1" data-name="Capa 1" xmlns="http://www.w3.org/2000/svg" viewBox="0 0 50 46.56">
  <defs>
    <style>
      .cls-1 {
        fill: #000;
        stroke-width: 0px;
      }
    </style>
  </defs>
  <path class="cls-1" d="M29.64,33.77h-9.32v12.67c-.26.05-.41.1-.56.1-2.68,0-5.36.05-8.04-.04-2.72-.09-4.77-2.26-4.8-4.99-.03-4-.03-8.01.01-12.01,0-.48.24-1.07.58-1.41,5.42-5.46,10.86-10.89,16.31-16.33.81-.8,1.49-.82,2.29-.02,5.44,5.43,10.89,10.87,16.29,16.34.37.38.61,1.05.62,1.59.05,3.85.04,7.69.03,11.54,0,2.99-2.13,5.23-5.12,5.31-2.49.07-4.98,0-7.47.04-.7.01-.84-.27-.84-.89.02-3.56.01-7.12.01-10.69,0-.37,0-.75,0-1.21Z"/>
  <path class="cls-1" d="M35.8,7.63c0-1.11-.02-1.92,0-2.73.04-1.82,1.25-3.08,2.91-3.06,1.66.02,2.83,1.3,2.84,3.12,0,2.52.03,5.05-.02,7.57-.01.7.22,1.17.7,1.64,2.3,2.25,4.57,4.53,6.83,6.82.81.81,1.17,1.78.77,2.93-.37,1.08-1.12,1.74-2.23,1.96-1.04.21-1.91-.17-2.65-.91-4.08-4.08-8.16-8.17-12.24-12.25-2.07-2.08-4.14-4.16-6.22-6.23-1.14-1.14-1.91-1.14-3.06.01-6.11,6.11-12.22,12.22-18.33,18.34-.78.78-1.66,1.27-2.79,1.03-2.26-.47-3.09-3.07-1.52-4.79,1.09-1.18,2.26-2.29,3.39-3.43,5.08-5.09,10.16-10.18,15.25-15.26,3.2-3.2,7.86-3.21,11.05-.03,1.47,1.47,2.93,2.96,4.4,4.43.22.22.45.42.9.83Z"/>
</svg>