<?xml version="1.0" encoding="UTF-8"?>
<svg id="Capa_2" data-name="Capa 2" xmlns="http://www.w3.org/2000/svg" viewBox="0 0 50 49.95">
  <defs>
    <style>
      .cls-1 {
        fill: #000;
        stroke-width: 0px;
      }
    </style>
  </defs>
  <path class="cls-1" d="M41.9,49.95c-.16-.9-.41-1.79-.45-2.69-.12-2.69-1.25-3.54-3.88-3.27-3.81.4-7.64.64-11.47.82-1.08.05-2.17-.37-3.56-.63,3.43-1.04,6.49-1.87,9.49-2.91,1.76-.61,3.47-1.45,5.07-2.4,5.36-3.18,12-.48,12.83,5.27.21,1.49-.03,2.48-1.66,3.1-1.88.71-3.63,1.79-5.44,2.71h-.94Z"/>
  <path class="cls-1" d="M42.59,21.19c.07,11.85-9.29,21.26-21.15,21.27-11.86.01-21.25-9.38-21.23-21.22C.23,9.69,9.69.04,21.04,0c11.99-.05,21.48,9.28,21.55,21.19ZM26.36,10.32c-.05-2.68-2.32-5.02-4.91-5.05-2.62-.04-5.08,2.46-5.08,5.17,0,2.77,2.34,5.11,5.08,5.09,2.8-.02,4.96-2.32,4.91-5.2ZM15.53,21.31c0-2.8-2.28-5.16-4.99-5.14-2.73.02-4.97,2.37-4.94,5.2.03,2.77,2.15,4.94,4.87,5,2.76.05,5.05-2.23,5.05-5.05ZM37.24,21.3c0-2.76-2.32-5.15-5.01-5.13-2.72.02-5.01,2.41-4.97,5.2.05,2.75,2.22,4.96,4.91,4.99,2.76.04,5.06-2.25,5.06-5.06ZM26.36,32.07c-.02-2.87-2.25-5.05-5.09-4.97-2.69.07-4.88,2.3-4.9,4.98-.02,2.72,2.34,5.13,5.03,5.14,2.8.01,4.98-2.26,4.96-5.15ZM23.75,21.17c-1.12-.73-1.83-1.54-2.37-1.44-.61.11-1.49,1.06-1.46,1.61.03.57.97,1.47,1.57,1.52.55.05,1.19-.84,2.26-1.69Z"/>
</svg>