<?xml version="1.0" encoding="UTF-8"?>
<svg id="Capa_3" data-name="Capa 3" xmlns="http://www.w3.org/2000/svg" viewBox="0 0 50 49.95">
  <defs>
    <style>
      .cls-1 {
        fill: #000;
        stroke-width: 0px;
      }
    </style>
  </defs>
  <path class="cls-1" d="M25,49.88c-3.84,0-7.68-.03-11.52,0-2.58.02-4.84-.68-6.71-2.53-1.22-1.21-1.87-2.69-2.02-4.34-.36-4.07,0-8.09,1.53-11.89,1.54-3.8,4.18-6.43,8.57-6.58.76-.03,1.62.32,2.29.73,1.82,1.13,3.63,2.3,5.75,2.78,2.91.66,5.58-.07,8.09-1.54.8-.47,1.53-1.04,2.33-1.51,1.72-1,3.43-.45,5.07.2,2.77,1.1,4.36,3.31,5.45,5.99,1.5,3.7,1.92,7.56,1.63,11.48-.29,3.98-3.49,6.91-7.58,7.17-.26.02-.51.03-.77.03-4.03,0-8.07,0-12.1,0,0,0,0,0,0,.01Z"/>
  <path class="cls-1" d="M12.92,12.48c-.02-6.52,5.72-11.92,12.16-11.69,6.42.23,11.6,5.54,11.48,11.96-.13,6.69-5.42,11.73-12.04,11.68-6.49-.06-11.77-5.7-11.6-11.95Z"/>
</svg>