<?xml version="1.0" encoding="UTF-8"?>
<svg id="Capa_4" data-name="Capa 4" xmlns="http://www.w3.org/2000/svg" viewBox="0 0 50 49.95">
  <defs>
    <style>
      .cls-1 {
        fill: #000;
        stroke-width: 0px;
      }

      .cls-2 {
        opacity: .99;
      }
    </style>
  </defs>
  <g class="cls-2">
    <path class="cls-1" d="M0,44.13c0-7.59,0-15.19,0-22.78.46-1.48,1.5-1.97,3-1.97,10.43.03,20.86.02,31.28.02.23,0,.45,0,.68.02,1.04.09,1.96.92,2.1,1.92.06.43.04.87.05,1.31,0,.56,0,1.12,0,1.75,1.36-.63,2.63-1.24,3.92-1.8.42-.18.9-.33,1.35-.34,1.65-.04,3.31-.03,4.96-.01,1.05,0,1.83.48,2.28,1.45.07.16.13.33.2.49v17.03c-.46,1.48-1.51,2.02-3.01,1.96-1.41-.06-2.82.02-4.23-.03-.53-.02-1.09-.15-1.59-.36-1.14-.47-2.24-1.02-3.35-1.54-.15-.07-.31-.13-.53-.22,0,.83.03,1.59-.01,2.35-.02.44-.08.92-.26,1.31-.47.98-1.34,1.32-2.4,1.31-10.59-.01-21.18,0-31.77,0-.15,0-.29,0-.44-.01-.98-.08-1.66-.58-2.06-1.47-.06-.13-.12-.25-.18-.38Z"/>
    <path class="cls-1" d="M27.21,17.31c-3.96-.07-7.11-3.28-7.05-7.18.06-3.93,3.29-7.07,7.22-7,3.91.07,7.06,3.31,6.98,7.19-.08,3.9-3.31,7.06-7.14,6.99Z"/>
    <path class="cls-1" d="M8.37,17.31c-3.9-.02-7.09-3.21-7.09-7.1,0-3.91,3.22-7.11,7.14-7.08,3.91.03,7.07,3.21,7.05,7.11-.01,3.89-3.22,7.08-7.11,7.07Z"/>
  </g>
</svg>